<mxfile host="app.diagrams.net" modified="2024-02-07T15:34:08.671Z" agent="Mozilla/5.0 (Macintosh; Intel Mac OS X 10_15_7) AppleWebKit/537.36 (KHTML, like Gecko) Chrome/121.0.0.0 Safari/537.36" etag="m9QFxDjLH8GW-eR_7UEM" version="22.1.21" type="device">
  <diagram name="Page-1" id="e0iJqbVawJMwF9Dr6PBd">
    <mxGraphModel dx="1564" dy="1061" grid="1" gridSize="10" guides="1" tooltips="1" connect="1" arrows="1" fold="1" page="1" pageScale="1" pageWidth="1100" pageHeight="850" math="0" shadow="0">
      <root>
        <mxCell id="0" />
        <mxCell id="1" parent="0" />
        <mxCell id="Qzpklr-ywFZGnQnEP8zE-7" style="edgeStyle=orthogonalEdgeStyle;rounded=0;orthogonalLoop=1;jettySize=auto;html=1;exitX=1;exitY=0.5;exitDx=0;exitDy=0;strokeWidth=4;fontColor=#858585;strokeColor=#828282;" edge="1" parent="1" source="Qzpklr-ywFZGnQnEP8zE-2" target="Qzpklr-ywFZGnQnEP8zE-10">
          <mxGeometry relative="1" as="geometry">
            <mxPoint x="440" y="394" as="targetPoint" />
          </mxGeometry>
        </mxCell>
        <mxCell id="Qzpklr-ywFZGnQnEP8zE-2" value="" style="shape=image;html=1;verticalAlign=top;verticalLabelPosition=bottom;labelBackgroundColor=#ffffff;imageAspect=0;aspect=fixed;image=https://cdn2.iconfinder.com/data/icons/bitsies/128/Application-128.png" vertex="1" parent="1">
          <mxGeometry x="150" y="330" width="128" height="128" as="geometry" />
        </mxCell>
        <mxCell id="Qzpklr-ywFZGnQnEP8zE-8" style="edgeStyle=orthogonalEdgeStyle;rounded=0;orthogonalLoop=1;jettySize=auto;html=1;exitX=1;exitY=0.5;exitDx=0;exitDy=0;entryX=0;entryY=0.5;entryDx=0;entryDy=0;strokeWidth=4;fontColor=#858585;strokeColor=#828282;" edge="1" parent="1" target="Qzpklr-ywFZGnQnEP8zE-5">
          <mxGeometry relative="1" as="geometry">
            <mxPoint x="600" y="394" as="sourcePoint" />
          </mxGeometry>
        </mxCell>
        <mxCell id="Qzpklr-ywFZGnQnEP8zE-5" value="" style="image;aspect=fixed;perimeter=ellipsePerimeter;html=1;align=center;shadow=0;dashed=0;spacingTop=3;image=img/lib/active_directory/web_server.svg;" vertex="1" parent="1">
          <mxGeometry x="750" y="319" width="120" height="150" as="geometry" />
        </mxCell>
        <mxCell id="Qzpklr-ywFZGnQnEP8zE-9" value="Web Browser" style="text;strokeColor=none;align=center;fillColor=none;html=1;verticalAlign=middle;whiteSpace=wrap;rounded=0;fontSize=16;fontColor=#828282;" vertex="1" parent="1">
          <mxGeometry x="184" y="278" width="60" height="30" as="geometry" />
        </mxCell>
        <mxCell id="Qzpklr-ywFZGnQnEP8zE-10" value="" style="aspect=fixed;sketch=0;html=1;dashed=0;whitespace=wrap;fillColor=#10a866;strokeColor=#ffffff;points=[[0.005,0.63,0],[0.1,0.2,0],[0.9,0.2,0],[0.5,0,0],[0.995,0.63,0],[0.72,0.99,0],[0.5,1,0],[0.28,0.99,0]];shape=mxgraph.kubernetes.icon2;prIcon=k_proxy" vertex="1" parent="1">
          <mxGeometry x="450" y="324" width="145.83" height="140" as="geometry" />
        </mxCell>
        <mxCell id="Qzpklr-ywFZGnQnEP8zE-11" value="Front End Proxy Services" style="text;strokeColor=none;align=center;fillColor=none;html=1;verticalAlign=middle;whiteSpace=wrap;rounded=0;fontSize=16;fontColor=#828282;" vertex="1" parent="1">
          <mxGeometry x="442.92" y="469" width="160" height="41" as="geometry" />
        </mxCell>
        <mxCell id="Qzpklr-ywFZGnQnEP8zE-12" value="Origin Server" style="text;strokeColor=none;align=center;fillColor=none;html=1;verticalAlign=middle;whiteSpace=wrap;rounded=0;fontSize=16;fontColor=#828282;" vertex="1" parent="1">
          <mxGeometry x="740" y="278" width="130" height="30" as="geometry" />
        </mxCell>
        <mxCell id="Qzpklr-ywFZGnQnEP8zE-14" value="SSL: *.hornbill.com" style="text;strokeColor=none;align=center;fillColor=none;html=1;verticalAlign=middle;whiteSpace=wrap;rounded=0;fontSize=14;fontColor=#828282;" vertex="1" parent="1">
          <mxGeometry x="610" y="410" width="110" height="30" as="geometry" />
        </mxCell>
        <mxCell id="Qzpklr-ywFZGnQnEP8zE-15" value="SSL: *.yourdomain.com" style="text;strokeColor=none;align=center;fillColor=none;html=1;verticalAlign=middle;whiteSpace=wrap;rounded=0;fontSize=14;fontColor=#828282;" vertex="1" parent="1">
          <mxGeometry x="320" y="410" width="110" height="30" as="geometry" />
        </mxCell>
        <mxCell id="Qzpklr-ywFZGnQnEP8zE-17" value="" style="endArrow=none;dashed=1;html=1;rounded=0;strokeColor=#828282;" edge="1" parent="1">
          <mxGeometry width="50" height="50" relative="1" as="geometry">
            <mxPoint x="120" y="550" as="sourcePoint" />
            <mxPoint x="120" y="190" as="targetPoint" />
          </mxGeometry>
        </mxCell>
        <mxCell id="Qzpklr-ywFZGnQnEP8zE-19" value="" style="endArrow=none;dashed=1;html=1;rounded=0;strokeColor=#828282;" edge="1" parent="1">
          <mxGeometry width="50" height="50" relative="1" as="geometry">
            <mxPoint x="310" y="550" as="sourcePoint" />
            <mxPoint x="310" y="190" as="targetPoint" />
          </mxGeometry>
        </mxCell>
        <mxCell id="Qzpklr-ywFZGnQnEP8zE-20" value="" style="endArrow=none;dashed=1;html=1;rounded=0;strokeColor=#828282;" edge="1" parent="1">
          <mxGeometry width="50" height="50" relative="1" as="geometry">
            <mxPoint x="610" y="550" as="sourcePoint" />
            <mxPoint x="610" y="190" as="targetPoint" />
          </mxGeometry>
        </mxCell>
        <mxCell id="Qzpklr-ywFZGnQnEP8zE-21" value="" style="endArrow=none;dashed=1;html=1;rounded=0;strokeColor=#828282;" edge="1" parent="1">
          <mxGeometry width="50" height="50" relative="1" as="geometry">
            <mxPoint x="890" y="550" as="sourcePoint" />
            <mxPoint x="890" y="190" as="targetPoint" />
          </mxGeometry>
        </mxCell>
        <mxCell id="Qzpklr-ywFZGnQnEP8zE-22" value="Your Customer Portal User" style="text;strokeColor=none;align=center;fillColor=none;html=1;verticalAlign=middle;whiteSpace=wrap;rounded=0;fontSize=19;" vertex="1" parent="1">
          <mxGeometry x="144" y="210" width="140" height="30" as="geometry" />
        </mxCell>
        <mxCell id="Qzpklr-ywFZGnQnEP8zE-23" value="" style="endArrow=none;dashed=1;html=1;rounded=0;strokeColor=#828282;" edge="1" parent="1">
          <mxGeometry width="50" height="50" relative="1" as="geometry">
            <mxPoint x="890" y="260" as="sourcePoint" />
            <mxPoint x="120" y="260" as="targetPoint" />
          </mxGeometry>
        </mxCell>
        <mxCell id="Qzpklr-ywFZGnQnEP8zE-24" value="Front End Proxy and SSL Host" style="text;strokeColor=none;align=center;fillColor=none;html=1;verticalAlign=middle;whiteSpace=wrap;rounded=0;fontSize=19;" vertex="1" parent="1">
          <mxGeometry x="390" y="210" width="140" height="30" as="geometry" />
        </mxCell>
        <mxCell id="Qzpklr-ywFZGnQnEP8zE-25" value="Hornbill Origin Servers" style="text;strokeColor=none;align=center;fillColor=none;html=1;verticalAlign=middle;whiteSpace=wrap;rounded=0;fontSize=19;" vertex="1" parent="1">
          <mxGeometry x="690" y="210" width="140" height="30" as="geometry" />
        </mxCell>
      </root>
    </mxGraphModel>
  </diagram>
</mxfile>
